<svg width="19" height="19" viewBox="0 0 19 19" fill="none" xmlns="http://www.w3.org/2000/svg">
<path d="M9.16634 7.49998V4.99998H6.66634V3.33331H9.16634V0.833313H10.833V3.33331H13.333V4.99998H10.833V7.49998H9.16634ZM5.83301 18.3333C5.37467 18.3333 4.98231 18.1701 4.65592 17.8437C4.32954 17.5173 4.16634 17.125 4.16634 16.6666C4.16634 16.2083 4.32954 15.816 4.65592 15.4896C4.98231 15.1632 5.37467 15 5.83301 15C6.29134 15 6.6837 15.1632 7.01009 15.4896C7.33648 15.816 7.49967 16.2083 7.49967 16.6666C7.49967 17.125 7.33648 17.5173 7.01009 17.8437C6.6837 18.1701 6.29134 18.3333 5.83301 18.3333ZM14.1663 18.3333C13.708 18.3333 13.3156 18.1701 12.9893 17.8437C12.6629 17.5173 12.4997 17.125 12.4997 16.6666C12.4997 16.2083 12.6629 15.816 12.9893 15.4896C13.3156 15.1632 13.708 15 14.1663 15C14.6247 15 15.017 15.1632 15.3434 15.4896C15.6698 15.816 15.833 16.2083 15.833 16.6666C15.833 17.125 15.6698 17.5173 15.3434 17.8437C15.017 18.1701 14.6247 18.3333 14.1663 18.3333ZM0.833008 3.33331V1.66665H3.56217L7.10384 9.16665H12.9372L16.1872 3.33331H18.083L14.4163 9.95831C14.2636 10.2361 14.0587 10.4514 13.8018 10.6041C13.5448 10.7569 13.2636 10.8333 12.958 10.8333H6.74967L5.83301 12.5H15.833V14.1666H5.83301C5.20801 14.1666 4.73231 13.8958 4.40592 13.3541C4.07954 12.8125 4.06912 12.2639 4.37467 11.7083L5.49967 9.66665L2.49967 3.33331H0.833008Z" fill="#FD8806"/>
</svg>
