<svg width="16" height="17" viewBox="0 0 16 17" fill="none" xmlns="http://www.w3.org/2000/svg">
<path d="M7.16667 14.6875V8.97919L2.16667 6.08335V11.7917L7.16667 14.6875ZM8.83333 14.6875L13.8333 11.7917V6.08335L8.83333 8.97919V14.6875ZM7.16667 16.6042L1.33333 13.25C1.06944 13.0972 0.864583 12.8959 0.71875 12.6459C0.572917 12.3959 0.5 12.1181 0.5 11.8125V5.18752C0.5 4.88196 0.572917 4.60419 0.71875 4.35419C0.864583 4.10419 1.06944 3.9028 1.33333 3.75002L7.16667 0.395854C7.43056 0.243076 7.70833 0.166687 8 0.166687C8.29167 0.166687 8.56944 0.243076 8.83333 0.395854L14.6667 3.75002C14.9306 3.9028 15.1354 4.10419 15.2813 4.35419C15.4271 4.60419 15.5 4.88196 15.5 5.18752V11.8125C15.5 12.1181 15.4271 12.3959 15.2813 12.6459C15.1354 12.8959 14.9306 13.0972 14.6667 13.25L8.83333 16.6042C8.56944 16.757 8.29167 16.8334 8 16.8334C7.70833 16.8334 7.43056 16.757 7.16667 16.6042ZM11.3333 5.60419L12.9375 4.68752L8 1.83335L6.375 2.77085L11.3333 5.60419ZM8 7.54169L9.625 6.60419L4.6875 3.75002L3.0625 4.68752L8 7.54169Z" fill="#FD8806"/>
</svg>
