<svg width="20" height="21" viewBox="0 0 20 21" fill="none" xmlns="http://www.w3.org/2000/svg">
<mask id="mask0_6214_2138" style="mask-type:alpha" maskUnits="userSpaceOnUse" x="0" y="0" width="20" height="21">
<rect y="0.5" width="20" height="20" fill="#D9D9D9"/>
</mask>
<g mask="url(#mask0_6214_2138)">
<path d="M5.00016 18.8333C4.54183 18.8333 4.14947 18.6701 3.82308 18.3437C3.49669 18.0174 3.3335 17.625 3.3335 17.1667V3.83332C3.3335 3.37499 3.49669 2.98263 3.82308 2.65624C4.14947 2.32985 4.54183 2.16666 5.00016 2.16666H11.6668L16.6668 7.16666V17.1667C16.6668 17.625 16.5036 18.0174 16.1772 18.3437C15.8509 18.6701 15.4585 18.8333 15.0002 18.8333H5.00016ZM10.8335 7.99999V3.83332H5.00016V17.1667H15.0002V7.99999H10.8335Z" fill="#333333"/>
</g>
</svg>
