<svg width="19" height="15" viewBox="0 0 19 15" fill="none" xmlns="http://www.w3.org/2000/svg">
<path d="M15.8753 13.8765C15.8753 14.0422 15.8094 14.2012 15.6922 14.3184C15.575 14.4356 15.416 14.5015 15.2503 14.5015C15.0845 14.5015 14.9255 14.4356 14.8083 14.3184C14.6911 14.2012 14.6253 14.0422 14.6253 13.8765L14.6253 2.88521L13.1928 4.31896C13.1347 4.37707 13.0657 4.42316 12.9898 4.45461C12.9138 4.48606 12.8325 4.50225 12.7503 4.50225C12.6681 4.50225 12.5867 4.48606 12.5108 4.45461C12.4349 4.42316 12.3659 4.37707 12.3078 4.31896C12.2497 4.26085 12.2036 4.19186 12.1721 4.11594C12.1407 4.04001 12.1245 3.95864 12.1245 3.87646C12.1245 3.79428 12.1407 3.7129 12.1721 3.63698C12.2036 3.56106 12.2497 3.49207 12.3078 3.43396L14.8078 0.93521L14.8165 0.92646C14.9339 0.812036 15.0917 0.748618 15.2556 0.750023C15.4195 0.751427 15.5762 0.817541 15.6915 0.933959L18.1915 3.43396C18.3089 3.55115 18.3749 3.71017 18.375 3.87602C18.3751 4.04187 18.3093 4.20098 18.1922 4.31834C18.075 4.43569 17.9159 4.50169 17.7501 4.50181C17.5842 4.50193 17.4251 4.43615 17.3078 4.31896L15.8753 2.88521L15.8753 13.8765ZM9.62421 12C9.78997 12 9.94894 12.0658 10.0662 12.1831C10.1834 12.3003 10.2492 12.4592 10.2492 12.625C10.2492 12.7908 10.1834 12.9497 10.0662 13.0669C9.94894 13.1842 9.78997 13.25 9.62421 13.25L8.37421 13.25C8.20845 13.25 8.04948 13.1842 7.93227 13.0669C7.81506 12.9497 7.74921 12.7908 7.74921 12.625C7.74921 12.4592 7.81506 12.3003 7.93227 12.1831C8.04948 12.0658 8.20845 12 8.37421 12L9.62421 12ZM9.62421 8.25C9.78997 8.25 9.94894 8.31585 10.0662 8.43306C10.1834 8.55027 10.2492 8.70924 10.2492 8.875C10.2492 9.04076 10.1834 9.19973 10.0662 9.31694C9.94894 9.43415 9.78997 9.5 9.62421 9.5L5.87421 9.5C5.70845 9.5 5.54948 9.43415 5.43227 9.31694C5.31506 9.19973 5.24921 9.04076 5.24921 8.875C5.24921 8.70924 5.31506 8.55027 5.43227 8.43306C5.54948 8.31585 5.70845 8.25 5.87421 8.25L9.62421 8.25ZM9.62421 4.5C9.78997 4.5 9.94894 4.56585 10.0662 4.68306C10.1834 4.80027 10.2492 4.95924 10.2492 5.125C10.2492 5.29076 10.1834 5.44973 10.0662 5.56694C9.94894 5.68415 9.78997 5.75 9.62421 5.75L3.37421 5.75C3.20845 5.75 3.04948 5.68415 2.93227 5.56694C2.81506 5.44973 2.74921 5.29076 2.74921 5.125C2.74921 4.95924 2.81506 4.80027 2.93227 4.68306C3.04948 4.56585 3.20845 4.5 3.37421 4.5L9.62421 4.5ZM10.2492 1.375C10.2492 1.20924 10.1834 1.05027 10.0662 0.933057C9.94894 0.815847 9.78997 0.749999 9.62421 0.749999L0.874212 0.749998C0.708452 0.749998 0.54948 0.815846 0.43227 0.933056C0.31506 1.05027 0.249212 1.20924 0.249212 1.375C0.249212 1.54076 0.31506 1.69973 0.43227 1.81694C0.54948 1.93415 0.708452 2 0.874212 2L9.62421 2C9.78997 2 9.94894 1.93415 10.0662 1.81694C10.1834 1.69973 10.2492 1.54076 10.2492 1.375Z" fill="#FD8806"/>
</svg>
