<svg width="18" height="18" viewBox="0 0 18 18" fill="none" xmlns="http://www.w3.org/2000/svg">
<path d="M17.25 8.08333L17.25 0.75L9.91667 0.749999L9.91667 8.08333L17.25 8.08333ZM17.25 17.25L17.25 9.91667L9.91667 9.91667L9.91667 17.25L17.25 17.25ZM8.08333 8.08333L8.08333 0.749999L0.75 0.749999L0.749999 8.08333L8.08333 8.08333ZM8.08333 17.25L8.08333 9.91667L0.749999 9.91667L0.749999 17.25L8.08333 17.25ZM15.4167 6.25L11.75 6.25L11.75 2.58333L15.4167 2.58333L15.4167 6.25ZM6.25 6.25L2.58333 6.25L2.58333 2.58333L6.25 2.58333L6.25 6.25ZM6.25 15.4167L2.58333 15.4167L2.58333 11.75L6.25 11.75L6.25 15.4167ZM15.4167 15.4167L11.75 15.4167L11.75 11.75L15.4167 11.75L15.4167 15.4167Z" fill="#828282"/>
</svg>
