<svg width="18" height="16" viewBox="0 0 18 16" fill="none" xmlns="http://www.w3.org/2000/svg">
<path d="M11.75 14.4166L11.75 12.5833L0.749999 12.5833L0.749999 14.4166L11.75 14.4166ZM11.75 8.91663L11.75 7.08329L0.749999 7.08329L0.749999 8.91662L11.75 8.91663ZM11.75 3.41663L11.75 1.58329L0.75 1.58329L0.75 3.41662L11.75 3.41663ZM15.4167 15.3333C15.9208 15.3333 16.3524 15.1538 16.7115 14.7948C17.0705 14.4357 17.25 14.0041 17.25 13.5C17.25 12.9958 17.0705 12.5642 16.7115 12.2052C16.3524 11.8461 15.9208 11.6666 15.4167 11.6666C14.9125 11.6666 14.4809 11.8461 14.1219 12.2052C13.7628 12.5642 13.5833 12.9958 13.5833 13.5C13.5833 14.0041 13.7628 14.4357 14.1219 14.7948C14.4809 15.1538 14.9125 15.3333 15.4167 15.3333ZM15.4167 9.83329C15.9208 9.83329 16.3524 9.65378 16.7115 9.29475C17.0705 8.93572 17.25 8.50413 17.25 7.99996C17.25 7.49579 17.0705 7.0642 16.7115 6.70517C16.3524 6.34614 15.9208 6.16663 15.4167 6.16663C14.9125 6.16663 14.4809 6.34614 14.1219 6.70517C13.7628 7.0642 13.5833 7.49579 13.5833 7.99996C13.5833 8.50413 13.7628 8.93572 14.1219 9.29475C14.4809 9.65378 14.9125 9.83329 15.4167 9.83329ZM15.4167 4.33329C15.9208 4.33329 16.3524 4.15378 16.7115 3.79475C17.0705 3.43572 17.25 3.00413 17.25 2.49996C17.25 1.99579 17.0705 1.5642 16.7115 1.20517C16.3524 0.84614 15.9208 0.666626 15.4167 0.666626C14.9125 0.666626 14.4809 0.84614 14.1219 1.20517C13.7628 1.5642 13.5833 1.99579 13.5833 2.49996C13.5833 3.00413 13.7628 3.43572 14.1219 3.79475C14.4809 4.15378 14.9125 4.33329 15.4167 4.33329Z" fill="#0E0E0E"/>
</svg>
