<svg width="32" height="32" viewBox="0 0 32 32" fill="none" xmlns="http://www.w3.org/2000/svg">
<mask id="mask0_6255_3399" style="mask-type:alpha" maskUnits="userSpaceOnUse" x="0" y="0" width="32" height="32">
<rect width="32" height="32" fill="#D9D9D9"/>
</mask>
<g mask="url(#mask0_6255_3399)">
<path d="M12.667 22L22.0003 16L12.667 10V22ZM16.0003 29.3334C14.1559 29.3334 12.4225 28.9834 10.8003 28.2834C9.1781 27.5834 7.76699 26.6334 6.56699 25.4334C5.36699 24.2334 4.41699 22.8222 3.71699 21.2C3.01699 19.5778 2.66699 17.8445 2.66699 16C2.66699 14.1556 3.01699 12.4222 3.71699 10.8C4.41699 9.1778 5.36699 7.76669 6.56699 6.56669C7.76699 5.36669 9.1781 4.41669 10.8003 3.71669C12.4225 3.01669 14.1559 2.66669 16.0003 2.66669C17.8448 2.66669 19.5781 3.01669 21.2003 3.71669C22.8225 4.41669 24.2337 5.36669 25.4337 6.56669C26.6337 7.76669 27.5837 9.1778 28.2837 10.8C28.9837 12.4222 29.3337 14.1556 29.3337 16C29.3337 17.8445 28.9837 19.5778 28.2837 21.2C27.5837 22.8222 26.6337 24.2334 25.4337 25.4334C24.2337 26.6334 22.8225 27.5834 21.2003 28.2834C19.5781 28.9834 17.8448 29.3334 16.0003 29.3334ZM16.0003 26.6667C18.9781 26.6667 21.5003 25.6334 23.567 23.5667C25.6337 21.5 26.667 18.9778 26.667 16C26.667 13.0222 25.6337 10.5 23.567 8.43335C21.5003 6.36669 18.9781 5.33335 16.0003 5.33335C13.0225 5.33335 10.5003 6.36669 8.43366 8.43335C6.36699 10.5 5.33366 13.0222 5.33366 16C5.33366 18.9778 6.36699 21.5 8.43366 23.5667C10.5003 25.6334 13.0225 26.6667 16.0003 26.6667Z" fill="white"/>
</g>
</svg>
