<svg width="32" height="32" viewBox="0 0 32 32" fill="none" xmlns="http://www.w3.org/2000/svg">
<path fill-rule="evenodd" clip-rule="evenodd" d="M16 32C24.8366 32 32 24.8366 32 16C32 7.16344 24.8366 0 16 0C7.16344 0 0 7.16344 0 16C0 24.8366 7.16344 32 16 32Z" fill="#25D366"/>
<path fill-rule="evenodd" clip-rule="evenodd" d="M16.5276 24.9017H16.5237C14.9314 24.9012 13.3668 24.5017 11.9772 23.7437L6.93359 25.0667L8.28334 20.1366C7.45075 18.6937 7.01265 17.057 7.01336 15.3802C7.01545 10.1345 11.2835 5.8667 16.5276 5.8667C19.0727 5.8678 21.4615 6.85861 23.2577 8.65697C25.054 10.4552 26.0427 12.8456 26.0417 15.3877C26.0396 20.6322 21.7733 24.8996 16.5276 24.9017ZM12.2108 22.0213L12.4996 22.1927C13.7137 22.9131 15.1054 23.2944 16.5244 23.2949H16.5276C20.8861 23.2949 24.4335 19.7475 24.4353 15.3872C24.4361 13.2742 23.6144 11.2874 22.1214 9.79269C20.6284 8.29796 18.6429 7.47439 16.5307 7.47366C12.1689 7.47366 8.62143 11.0208 8.6197 15.3807C8.61909 16.8749 9.03716 18.3301 9.82874 19.5891L10.0168 19.8883L9.21791 22.8064L12.2108 22.0213ZM21.3208 17.6501C21.2614 17.551 21.1029 17.4915 20.8652 17.3724C20.6275 17.2534 19.4587 16.6784 19.2407 16.599C19.0229 16.5197 18.8643 16.4801 18.7059 16.718C18.5474 16.9559 18.0919 17.4915 17.9532 17.6501C17.8145 17.8087 17.6758 17.8286 17.4382 17.7096C17.2004 17.5906 16.4345 17.3396 15.5264 16.5297C14.8197 15.8993 14.3426 15.1209 14.2039 14.8829C14.0653 14.6449 14.1892 14.5163 14.3082 14.3977C14.4151 14.2912 14.5459 14.12 14.6648 13.9812C14.7836 13.8424 14.8232 13.7432 14.9025 13.5847C14.9817 13.4259 14.9421 13.2872 14.8827 13.1682C14.8232 13.0492 14.3478 11.879 14.1497 11.403C13.9567 10.9395 13.7608 11.0023 13.6148 10.995C13.4763 10.988 13.3177 10.9865 13.1592 10.9865C13.0008 10.9865 12.7432 11.046 12.5253 11.284C12.3074 11.522 11.6933 12.0972 11.6933 13.2672C11.6933 14.4373 12.5451 15.5678 12.664 15.7264C12.7828 15.8851 14.3403 18.2862 16.725 19.316C17.2922 19.5609 17.7349 19.7072 18.0802 19.8167C18.6497 19.9977 19.168 19.9722 19.5775 19.9109C20.0343 19.8427 20.984 19.3359 21.1822 18.7806C21.3802 18.2252 21.3802 17.7492 21.3208 17.6501Z" fill="#FDFDFD"/>
</svg>
